<?xml version="1.0" encoding="iso-8859-1"?>
<!-- Generator: Adobe Illustrator 19.0.0, SVG Export Plug-In . SVG Version: 6.00 Build 0)  -->
<svg version="1.1" id="Capa_1" xmlns="http://www.w3.org/2000/svg" xmlns:xlink="http://www.w3.org/1999/xlink" x="0px" y="0px"
	 viewBox="0 0 480 480" style="enable-background:new 0 0 480 480;" xml:space="preserve">
<g>
	<circle style="fill:#FF7059;" cx="240" cy="368" r="40"/>
	<path style="fill:#FF7059;" d="M208,72h64v224h-64V72z"/>
	<g>
		<path id="SVGCleanerId_0" style="fill:#FF7059;" d="M232,0h16v48h-16V0z"/>
	</g>
	<g>
		<path id="SVGCleanerId_1" style="fill:#FF7059;" d="M170.175,10.213l15.456-4.144l12.432,46.368l-15.456,4.144L170.175,10.213z"/>
	</g>
	<g transform="matrix(1 -0.00007 0.00007 1 0 0.002)">
		<path id="SVGCleanerId_2" style="fill:#FF7059;" d="M113.078,36.152l13.857-8l23.999,41.57l-13.857,8L113.078,36.152z"/>
	</g>
	<g>
		<path id="SVGCleanerId_3" style="fill:#FF7059;" d="M64.634,75.948l11.314-11.313l33.939,33.943l-11.314,11.313L64.634,75.948z"/>
	</g>
	<g>
		<path id="SVGCleanerId_4" style="fill:#FF7059;" d="M28.15,126.929l8-13.856l41.569,23.999l-8,13.856L28.15,126.929z"/>
	</g>
	<g>
		<path id="SVGCleanerId_5" style="fill:#FF7059;" d="M6.107,185.571l4.142-15.455l46.356,12.425l-4.142,15.455L6.107,185.571z"/>
	</g>
	<g>
		<path id="SVGCleanerId_6" style="fill:#FF7059;" d="M0,232h48v16H0V232z"/>
	</g>
	<g>
		<path id="SVGCleanerId_7" style="fill:#FF7059;" d="M6.109,294.392l46.357-12.421l4.141,15.455L10.25,309.847L6.109,294.392z"/>
	</g>
	<g>
		<path id="SVGCleanerId_8" style="fill:#FF7059;" d="M28.153,353.073l41.571-23.996l7.999,13.857L36.152,366.93L28.153,353.073z"/>
	</g>
	<g>
		<path id="SVGCleanerId_9" style="fill:#FF7059;" d="M64.613,404.036l33.941-33.941l11.314,11.314L75.927,415.35L64.613,404.036z"
			/>
	</g>
	<g>
		<path id="SVGCleanerId_10" style="fill:#FF7059;" d="M113.074,443.849l23.996-41.571l13.857,7.999l-23.996,41.571L113.074,443.849
			z"/>
	</g>
	<g transform="matrix(0.99988 -0.00016 0.00016 0.99988 -0.015 0)">
		<path id="SVGCleanerId_11" style="fill:#FF7059;" d="M170.155,469.753l12.423-46.364l15.455,4.141l-12.423,46.364L170.155,469.753
			z"/>
	</g>
	<g>
		<path id="SVGCleanerId_12" style="fill:#FF7059;" d="M232,432h16v48h-16V432z"/>
	</g>
	<g>
		<path id="SVGCleanerId_13" style="fill:#FF7059;" d="M282.073,427.507l15.456-4.144l12.432,46.368l-15.456,4.144L282.073,427.507z
			"/>
	</g>
	<g>
		<path id="SVGCleanerId_14" style="fill:#FF7059;" d="M329.07,410.289l13.857-8l23.999,41.569l-13.856,8L329.07,410.289z"/>
	</g>
	<g>
		<path id="SVGCleanerId_15" style="fill:#FF7059;" d="M370.132,381.434l11.314-11.313l33.939,33.943l-11.314,11.313
			L370.132,381.434z"/>
	</g>
	<g>
		<path id="SVGCleanerId_16" style="fill:#FF7059;" d="M402.266,342.902l8-13.856l41.569,23.999l-8,13.856L402.266,342.902z"/>
	</g>
	<g>
		<path id="SVGCleanerId_17" style="fill:#FF7059;" d="M423.389,297.414l4.142-15.455l46.356,12.425l-4.142,15.455L423.389,297.414z
			"/>
	</g>
	<g>
		<path id="SVGCleanerId_18" style="fill:#FF7059;" d="M432,232h48v16h-48V232z"/>
	</g>
	<g transform="matrix(1 0.00007 -0.00007 1 0 -0.005)">
		<path id="SVGCleanerId_19" style="fill:#FF7059;" d="M423.376,182.573l46.357-12.421l4.141,15.455l-46.357,12.421L423.376,182.573
			z"/>
	</g>
	<g>
		<path id="SVGCleanerId_20" style="fill:#FF7059;" d="M402.273,137.035l41.571-23.996l7.999,13.857l-41.571,23.996L402.273,137.035
			z"/>
	</g>
	<g transform="matrix(1 0.00005 -0.00005 1 0 -0.002)">
		<path id="SVGCleanerId_21" style="fill:#FF7059;" d="M370.107,98.579l33.941-33.941l11.314,11.314l-33.941,33.941L370.107,98.579z
			"/>
	</g>
	<g transform="matrix(1 -0.00007 0.00007 1 0 0.003)">
		<path id="SVGCleanerId_22" style="fill:#FF7059;" d="M329.076,69.72l23.996-41.571l13.857,7.999l-23.996,41.571L329.076,69.72z"/>
	</g>
	<g transform="matrix(0.99988 -0.00016 0.00016 0.99988 -0.005 0.009)">
		<path id="SVGCleanerId_23" style="fill:#FF7059;" d="M281.964,52.495l12.423-46.364l15.455,4.141l-12.423,46.364L281.964,52.495z"
			/>
	</g>
</g>
<path d="M288,368c0-26.51-21.49-48-48-48s-48,21.49-48,48s21.49,48,48,48C266.497,415.969,287.969,394.497,288,368z M240,400
	c-17.673,0-32-14.327-32-32s14.327-32,32-32s32,14.327,32,32S257.673,400,240,400z"/>
<path d="M200,72v224c0,4.418,3.582,8,8,8h64c4.418,0,8-3.582,8-8V72c0-4.418-3.582-8-8-8h-64C203.582,64,200,67.582,200,72z M216,80
	h48v208h-48V80z"/>
<path id="SVGCleanerId_0_1_" d="M232,0h16v48h-16V0z"/>
<path id="SVGCleanerId_1_1_" d="M170.175,10.213l15.456-4.144l12.432,46.368l-15.456,4.144L170.175,10.213z"/>
<path id="SVGCleanerId_2_1_" d="M113.074,36.145l13.857-7.999l23.996,41.571l-13.857,7.999L113.074,36.145z"/>
<path id="SVGCleanerId_3_1_" d="M64.634,75.948l11.314-11.313l33.939,33.943l-11.314,11.313L64.634,75.948z"/>
<path id="SVGCleanerId_4_1_" d="M28.15,126.929l8-13.856l41.569,23.999l-8,13.856L28.15,126.929z"/>
<path id="SVGCleanerId_5_1_" d="M6.107,185.571l4.142-15.455l46.356,12.425l-4.142,15.455L6.107,185.571z"/>
<path id="SVGCleanerId_6_1_" d="M0,232h48v16H0V232z"/>
<path id="SVGCleanerId_7_1_" d="M6.109,294.392l46.357-12.421l4.141,15.455L10.25,309.847L6.109,294.392z"/>
<path id="SVGCleanerId_8_1_" d="M28.153,353.073l41.571-23.996l7.999,13.857L36.152,366.93L28.153,353.073z"/>
<path id="SVGCleanerId_9_1_" d="M64.613,404.036l33.941-33.941l11.314,11.314L75.927,415.35L64.613,404.036z"/>
<path id="SVGCleanerId_10_1_" d="M113.074,443.849l23.996-41.571l13.857,7.999l-23.996,41.571L113.074,443.849z"/>
<path id="SVGCleanerId_11_1_" d="M170.219,469.841l12.432-46.368l15.456,4.144l-12.432,46.368L170.219,469.841z"/>
<path id="SVGCleanerId_12_1_" d="M232,432h16v48h-16V432z"/>
<path id="SVGCleanerId_13_1_" d="M282.073,427.507l15.456-4.144l12.432,46.368l-15.456,4.144L282.073,427.507z"/>
<path id="SVGCleanerId_14_1_" d="M329.07,410.289l13.857-8l23.999,41.569l-13.856,8L329.07,410.289z"/>
<path id="SVGCleanerId_15_1_" d="M370.132,381.434l11.314-11.313l33.939,33.943l-11.314,11.313L370.132,381.434z"/>
<path id="SVGCleanerId_16_1_" d="M402.266,342.902l8-13.856l41.569,23.999l-8,13.856L402.266,342.902z"/>
<path id="SVGCleanerId_17_1_" d="M423.389,297.414l4.142-15.455l46.356,12.425l-4.142,15.455L423.389,297.414z"/>
<path id="SVGCleanerId_18_1_" d="M432,232h48v16h-48V232z"/>
<path id="SVGCleanerId_19_1_" d="M423.39,182.582l46.356-12.425l4.142,15.455l-46.356,12.425L423.39,182.582z"/>
<path id="SVGCleanerId_20_1_" d="M402.273,137.035l41.571-23.996l7.999,13.857l-41.571,23.996L402.273,137.035z"/>
<path id="SVGCleanerId_21_1_" d="M370.112,98.576l33.939-33.943l11.314,11.313l-33.939,33.943L370.112,98.576z"/>
<path id="SVGCleanerId_22_1_" d="M329.07,69.721l23.999-41.569l13.857,8L342.926,77.72L329.07,69.721z"/>
<path id="SVGCleanerId_23_1_" d="M282.029,52.479l12.432-46.368l15.456,4.144l-12.432,46.368L282.029,52.479z"/>
<g>
</g>
<g>
</g>
<g>
</g>
<g>
</g>
<g>
</g>
<g>
</g>
<g>
</g>
<g>
</g>
<g>
</g>
<g>
</g>
<g>
</g>
<g>
</g>
<g>
</g>
<g>
</g>
<g>
</g>
</svg>
